HIERARCHY
ROOT Hips
{
	OFFSET 0.000000 35.082581 0.000000
	CHANNELS 6 Xposition Yposition Zposition Xrotation Yrotation Zrotation 
	JOINT Spine
	{
		OFFSET 0.000000 6.876099 0.125700
		CHANNELS 3 Xrotation Yrotation Zrotation
		JOINT Spine1
		{
			OFFSET 0.000000 5.730043 0.104720
			CHANNELS 3 Xrotation Yrotation Zrotation
			JOINT Spine1_split
			{
				OFFSET 0.000000 5.730043 0.104720
				CHANNELS 3 Xrotation Yrotation Zrotation
				JOINT Spine2
				{
					OFFSET 0.000000 5.730043 0.104720
					CHANNELS 3 Xrotation Yrotation Zrotation
					JOINT Neck
					{
						OFFSET 0.000000 10.314075 0.188496
						CHANNELS 3 Xrotation Yrotation Zrotation
						JOINT Head
						{
							OFFSET 0.000000 7.643700 -2.377400
							CHANNELS 3 Xrotation Yrotation Zrotation
							JOINT HeadTop_End
							{
								OFFSET 0.000000 43.788605 -13.619600
								CHANNELS 3 Xrotation Yrotation Zrotation
								End Site
								{
									OFFSET 0.000000 0.000000 0.000000
								}
							}
						}
					}
					JOINT LeftShoulder
					{
						OFFSET 2.196100 4.412489 0.087492
						CHANNELS 3 Xrotation Yrotation Zrotation
						JOINT LeftShoulder_split
						{
							OFFSET 2.196100 4.412489 0.087492
							CHANNELS 3 Xrotation Yrotation Zrotation
							JOINT LeftArm
							{
								OFFSET 8.771219 -2.981674 -0.026999
								CHANNELS 3 Xrotation Yrotation Zrotation
								JOINT LeftForeArm
								{
									OFFSET 8.512804 0.000000 -0.000000
									CHANNELS 3 Xrotation Yrotation Zrotation
									JOINT LeftHand
									{
										OFFSET 18.484802 0.000000 -0.000000
										CHANNELS 3 Xrotation Yrotation Zrotation
										JOINT LeftHandThumb1
										{
											OFFSET 2.499420 -1.158070 2.653252
											CHANNELS 3 Xrotation Yrotation Zrotation
											JOINT LeftHandThumb2
											{
												OFFSET 2.370079 -1.368366 1.368366
												CHANNELS 3 Xrotation Yrotation Zrotation
												JOINT LeftHandThumb3
												{
													OFFSET 2.676727 -1.545410 1.545409
													CHANNELS 3 Xrotation Yrotation Zrotation
													JOINT LeftHandThumb4
													{
														OFFSET 1.692226 -0.977005 0.977007
														CHANNELS 3 Xrotation Yrotation Zrotation
														End Site
														{
															OFFSET 0.000000 0.000000 0.000000
														}
													}
												}
											}
										}
										JOINT LeftHandIndex1
										{
											OFFSET 7.924831 -0.457527 2.345128
											CHANNELS 3 Xrotation Yrotation Zrotation
											JOINT LeftHandIndex2
											{
												OFFSET 3.643303 0.000000 0.000000
												CHANNELS 3 Xrotation Yrotation Zrotation
												JOINT LeftHandIndex3
												{
													OFFSET 3.810799 0.000000 0.000000
													CHANNELS 3 Xrotation Yrotation Zrotation
													JOINT LeftHandIndex4
													{
														OFFSET 2.403702 0.000000 0.000000
														CHANNELS 3 Xrotation Yrotation Zrotation
														End Site
														{
															OFFSET 0.000000 0.000000 0.000000
														}
													}
												}
											}
										}
										JOINT LeftHandMiddle1
										{
											OFFSET 8.563995 0.000000 -0.000000
											CHANNELS 3 Xrotation Yrotation Zrotation
											JOINT LeftHandMiddle2
											{
												OFFSET 3.861618 0.000000 0.000000
												CHANNELS 3 Xrotation Yrotation Zrotation
												JOINT LeftHandMiddle3
												{
													OFFSET 3.701603 0.000000 0.000000
													CHANNELS 3 Xrotation Yrotation Zrotation
													JOINT LeftHandMiddle4
													{
														OFFSET 2.322544 0.000000 0.000000
														CHANNELS 3 Xrotation Yrotation Zrotation
														End Site
														{
															OFFSET 0.000000 0.000000 0.000000
														}
													}
												}
											}
										}
										JOINT LeftHandRing1
										{
											OFFSET 8.426460 -0.424637 -3.286992
											CHANNELS 3 Xrotation Yrotation Zrotation
											JOINT LeftHandRing2
											{
												OFFSET 3.126408 0.000000 0.000000
												CHANNELS 3 Xrotation Yrotation Zrotation
												JOINT LeftHandRing3
												{
													OFFSET 3.085026 0.000000 0.000000
													CHANNELS 3 Xrotation Yrotation Zrotation
													JOINT LeftHandRing4
													{
														OFFSET 1.644005 0.000000 0.000000
														CHANNELS 3 Xrotation Yrotation Zrotation
														End Site
														{
															OFFSET 0.000000 0.000000 0.000000
														}
													}
												}
											}
										}
									}
								}
							}
						}
					}
					JOINT RightShoulder
					{
						OFFSET -2.196100 4.412496 0.070690
						CHANNELS 3 Xrotation Yrotation Zrotation
						JOINT RightShoulder_split
						{
							OFFSET -2.196100 4.412496 0.070690
							CHANNELS 3 Xrotation Yrotation Zrotation
							JOINT RightArm
							{
								OFFSET -8.771282 -2.981682 -0.094208
								CHANNELS 3 Xrotation Yrotation Zrotation
								JOINT RightForeArm
								{
									OFFSET -8.494598 0.000000 0.000000
									CHANNELS 3 Xrotation Yrotation Zrotation
									JOINT RightHand
									{
										OFFSET -18.483803 0.000000 0.000001
										CHANNELS 3 Xrotation Yrotation Zrotation
										JOINT RightHandThumb1
										{
											OFFSET -2.527351 -1.008072 2.575253
											CHANNELS 3 Xrotation Yrotation Zrotation
											JOINT RightHandThumb2
											{
												OFFSET -2.321518 -1.340328 1.340329
												CHANNELS 3 Xrotation Yrotation Zrotation
												JOINT RightHandThumb3
												{
													OFFSET -2.657753 -1.534454 1.534455
													CHANNELS 3 Xrotation Yrotation Zrotation
													JOINT RightHandThumb4
													{
														OFFSET -1.807510 -1.043568 1.043567
														CHANNELS 3 Xrotation Yrotation Zrotation
														End Site
														{
															OFFSET 0.000000 0.000000 0.000000
														}
													}
												}
											}
										}
										JOINT RightHandIndex1
										{
											OFFSET -8.811420 0.015533 2.887987
											CHANNELS 3 Xrotation Yrotation Zrotation
											JOINT RightHandIndex2
											{
												OFFSET -3.537502 0.000000 0.000000
												CHANNELS 3 Xrotation Yrotation Zrotation
												JOINT RightHandIndex3
												{
													OFFSET -3.356201 0.000000 0.000000
													CHANNELS 3 Xrotation Yrotation Zrotation
													JOINT RightHandIndex4
													{
														OFFSET -1.933098 0.000000 0.000000
														CHANNELS 3 Xrotation Yrotation Zrotation
														End Site
														{
															OFFSET 0.000000 0.000000 0.000000
														}
													}
												}
											}
										}
										JOINT RightHandMiddle1
										{
											OFFSET -8.178135 0.000000 0.000000
											CHANNELS 3 Xrotation Yrotation Zrotation
											JOINT RightHandMiddle2
											{
												OFFSET -3.901302 0.000000 0.000000
												CHANNELS 3 Xrotation Yrotation Zrotation
												JOINT RightHandMiddle3
												{
													OFFSET -3.909599 0.000000 0.000000
													CHANNELS 3 Xrotation Yrotation Zrotation
													JOINT RightHandMiddle4
													{
														OFFSET -2.376003 0.000000 0.000000
														CHANNELS 3 Xrotation Yrotation Zrotation
														End Site
														{
															OFFSET 0.000000 0.000000 0.000000
														}
													}
												}
											}
										}
										JOINT RightHandRing1
										{
											OFFSET -7.559013 0.014137 -2.865403
											CHANNELS 3 Xrotation Yrotation Zrotation
											JOINT RightHandRing2
											{
												OFFSET -3.449306 0.000000 0.000000
												CHANNELS 3 Xrotation Yrotation Zrotation
												JOINT RightHandRing3
												{
													OFFSET -3.362106 0.000000 0.000000
													CHANNELS 3 Xrotation Yrotation Zrotation
													JOINT RightHandRing4
													{
														OFFSET -2.076401 0.000000 0.000000
														CHANNELS 3 Xrotation Yrotation Zrotation
														End Site
														{
															OFFSET 0.000000 0.000000 0.000000
														}
													}
												}
											}
										}
									}
								}
							}
						}
					}
				}
			}
		}
	}
	JOINT LeftUpLeg
	{
		OFFSET 10.205400 -3.823500 0.155100
		CHANNELS 3 Xrotation Yrotation Zrotation
		JOINT LeftLeg
		{
			OFFSET 0.708757 -12.982077 0.567790
			CHANNELS 3 Xrotation Yrotation Zrotation
			JOINT LeftFoot
			{
				OFFSET -0.708756 -10.717838 -2.184338
				CHANNELS 3 Xrotation Yrotation Zrotation
				JOINT LeftToeBase
				{
					OFFSET 0.108149 -7.191104 7.560241
					CHANNELS 3 Xrotation Yrotation Zrotation
					JOINT LeftToe_End
					{
						OFFSET 0.070230 0.081724 4.490308
						CHANNELS 3 Xrotation Yrotation Zrotation
						End Site
						{
							OFFSET 0.000000 0.000000 0.000000
						}
					}
				}
			}
		}
	}
	JOINT RightUpLeg
	{
		OFFSET -10.205400 -3.823500 0.005500
		CHANNELS 3 Xrotation Yrotation Zrotation
		JOINT RightLeg
		{
			OFFSET -0.708756 -12.982134 0.610632
			CHANNELS 3 Xrotation Yrotation Zrotation
			JOINT RightFoot
			{
				OFFSET 0.708754 -10.717769 -1.945823
				CHANNELS 3 Xrotation Yrotation Zrotation
				JOINT RightToeBase
				{
					OFFSET -0.108140 -7.191069 7.372968
					CHANNELS 3 Xrotation Yrotation Zrotation
					JOINT RightToe_End
					{
						OFFSET -0.070227 0.081735 4.479403
						CHANNELS 3 Xrotation Yrotation Zrotation
						End Site
						{
							OFFSET 0.000000 0.000000 0.000000
						}
					}
				}
			}
		}
	}
}
MOTION
Frames: 5
Frame Time: 0.016667
7.758832 3.762962 1.464581 -113.116190 72.205488 30.363442 15.466212 -9.098288 -6.241431 10.269407 -4.988674 -4.175167 0.000000 0.000000 0.000000 10.075503 -5.450797 -4.055233 -3.272619 7.228381 -14.282611 -28.199351 11.664152 -14.767917 0.000000 0.000000 0.000003 4.010594 -4.908952 30.425894 0.000000 0.000000 0.000000 -98.272195 29.592939 -48.772267 0.000006 -29.022085 -0.000008 0.131381 16.629455 8.536193 -1.540043 3.690183 6.142357 3.939048 7.948703 0.746792 -0.579474 1.575005 2.538734 -0.000003 0.000001 -0.000002 -0.000005 0.000003 0.000011 -0.000000 0.000008 -0.000017 -0.000004 0.000005 -0.000013 0.000000 -0.000001 -0.000000 -0.000002 -0.001935 0.015987 -0.000006 0.001936 -0.016003 0.000008 0.000017 -0.000003 -0.000000 0.000000 -0.000001 -0.000011 0.000010 0.000007 0.000005 0.000010 -0.000015 0.000002 -0.000002 -0.000007 -0.000001 -0.000003 -0.000000 5.201619 10.649080 -16.868049 0.000000 0.000000 0.000000 -39.319534 45.122805 97.301243 -0.000015 102.936476 -0.000023 5.604814 -5.065551 40.880786 -1.849258 -3.581787 -6.586134 4.637197 -8.634134 -0.225424 -1.273764 0.137314 -2.094867 0.000001 0.000001 -0.000002 0.000006 -0.000002 0.000000 -0.000009 -0.000003 0.000010 0.000010 0.000001 0.000006 0.000000 -0.000001 -0.000001 0.000011 0.000001 0.000009 -0.000014 -0.000005 0.000007 0.000009 0.000001 0.000012 -0.000000 0.000000 0.000003 0.000001 -0.000003 0.000006 0.000002 -0.000004 0.000009 0.000000 0.000001 0.000012 0.000000 0.000001 -0.000000 -101.729534 19.732101 -16.470824 72.058345 25.860443 3.752549 24.480127 -3.134635 19.378976 -0.000015 0.000005 -0.000013 0.000001 0.000000 0.000000 -20.420220 -3.774231 19.255970 87.731785 -18.519064 -5.471867 17.753543 -3.900867 3.944873 -15.637001 0.000108 0.000029 0.000001 0.000000 -0.000002 
7.749589 3.755386 1.474457 -113.119250 72.134523 30.324489 15.415756 -9.084380 -6.160195 10.226779 -5.010031 -4.150926 0.000000 0.000000 0.000000 10.032194 -5.472382 -4.029267 -3.171016 7.239977 -14.352381 -28.146081 11.710055 -14.821594 -0.000001 0.000000 0.000000 4.063070 -4.848793 30.216736 0.000000 0.000000 0.000000 -98.229438 29.536159 -48.772793 0.000006 -28.953090 0.000011 0.230755 16.504993 8.705506 -1.540034 3.690170 6.142353 3.939041 7.948709 0.746816 -0.579475 1.575005 2.538710 0.000002 -0.000003 -0.000000 -0.000002 -0.000004 0.000005 0.000005 0.000018 -0.000014 -0.000000 0.000004 -0.000011 0.000000 -0.000001 0.000000 0.000004 -0.001924 0.015996 -0.000002 0.001932 -0.016004 0.000005 0.000003 -0.000002 0.000000 -0.000001 -0.000000 0.000001 0.000001 0.000010 0.000011 0.000003 -0.000018 -0.000007 0.000006 -0.000014 -0.000000 0.000001 -0.000001 5.188618 10.588834 -17.043110 0.000000 0.000000 0.000000 -39.537790 45.274203 97.619782 0.000028 102.793807 -0.000066 6.308734 -5.800622 39.941304 -1.849261 -3.581782 -6.586121 4.637203 -8.634133 -0.225416 -1.273759 0.137308 -2.094864 -0.000000 0.000001 0.000002 0.000002 0.000001 -0.000003 -0.000009 -0.000007 0.000036 0.000007 0.000003 0.000010 0.000000 0.000001 0.000002 -0.000000 0.000002 -0.000003 -0.000008 -0.000006 0.000014 0.000000 -0.000004 0.000017 0.000000 0.000000 0.000001 -0.000004 -0.000004 -0.000002 0.000007 -0.000001 0.000017 -0.000010 -0.000001 0.000010 0.000000 0.000001 0.000002 -101.623817 19.726454 -16.397539 72.337482 25.242112 3.638676 23.597947 -3.275020 18.905634 -0.000002 0.000001 0.000003 0.000002 -0.000002 -0.000000 -20.446079 -3.823270 19.256455 87.775868 -18.533638 -5.485835 17.767052 -3.847517 3.862397 -15.615291 0.000102 -0.000008 0.000000 0.000000 -0.000001 
7.740904 3.748940 1.483292 -113.129994 72.065995 30.292814 15.367179 -9.072020 -6.079870 10.185743 -5.031186 -4.126522 0.000000 0.000000 0.000000 9.990490 -5.493608 -4.003250 -3.062555 7.250389 -14.443437 -28.110480 11.751720 -14.847697 0.000001 0.000001 0.000002 4.107879 -4.790354 29.995039 0.000000 0.000000 0.000000 -98.160248 29.449532 -48.783550 0.000003 -28.882999 -0.000004 0.431186 16.400614 8.843819 -1.540036 3.690171 6.142340 3.939040 7.948724 0.746803 -0.579462 1.575002 2.538724 -0.000002 -0.000003 -0.000002 0.000004 -0.000003 0.000008 -0.000004 -0.000001 -0.000021 -0.000002 0.000001 -0.000019 0.000001 -0.000002 0.000000 -0.000003 -0.001934 0.015992 -0.000000 0.001937 -0.016006 -0.000001 -0.000004 -0.000017 -0.000000 0.000001 0.000001 -0.000007 0.000009 0.000010 0.000007 -0.000001 -0.000023 -0.000001 -0.000008 -0.000017 -0.000000 0.000002 0.000000 5.169981 10.526239 -17.181281 0.000000 0.000000 0.000000 -39.744683 45.430006 97.916608 -0.000011 102.663508 -0.000014 6.837474 -6.419673 39.016107 -1.849255 -3.581785 -6.586149 4.637201 -8.634135 -0.225395 -1.273761 0.137301 -2.094880 -0.000003 -0.000002 0.000005 0.000007 0.000009 -0.000003 -0.000007 -0.000013 0.000019 -0.000004 0.000002 0.000001 -0.000000 0.000001 0.000001 -0.000005 0.000003 -0.000004 0.000011 -0.000006 0.000020 -0.000005 -0.000002 0.000008 -0.000001 -0.000001 0.000000 -0.000007 0.000003 0.000000 0.000010 -0.000009 0.000017 0.000002 0.000007 0.000005 -0.000000 0.000001 0.000002 -101.518420 19.715701 -16.319998 72.614678 24.647889 3.528002 22.741622 -3.404013 18.448667 -0.000004 0.000001 -0.000020 -0.000001 -0.000001 -0.000000 -20.464056 -3.875045 19.260240 87.816439 -18.536070 -5.498070 17.778349 -3.811664 3.783603 -15.554559 0.000102 0.000031 0.000000 -0.000000 0.000001 
7.732632 3.742949 1.492054 -113.149091 72.000425 30.268892 15.320609 -9.060107 -6.002149 10.146124 -5.051345 -4.102150 0.000000 0.000000 0.000000 9.950375 -5.513600 -3.977278 -2.944892 7.257579 -14.552599 -28.093680 11.789444 -14.848541 -0.000001 0.000000 0.000002 4.142351 -4.736930 29.766740 0.000000 0.000000 0.000000 -98.061087 29.336219 -48.805513 0.000006 -28.810151 0.000001 0.727789 16.318203 8.949758 -1.540041 3.690166 6.142341 3.939044 7.948704 0.746808 -0.579478 1.575013 2.538731 0.000002 -0.000000 -0.000002 -0.000005 -0.000006 -0.000002 0.000002 -0.000001 -0.000011 0.000004 0.000006 -0.000010 0.000000 0.000000 -0.000001 -0.000008 -0.001940 0.015979 -0.000004 0.001929 -0.016001 0.000006 0.000009 -0.000003 0.000000 0.000001 0.000001 -0.000004 -0.000002 0.000000 0.000002 -0.000002 -0.000011 -0.000000 0.000002 -0.000008 0.000001 0.000001 0.000001 5.149341 10.461778 -17.293233 0.000000 0.000000 0.000000 -39.931601 45.580502 98.183771 0.000022 102.561663 -0.000041 7.264760 -6.997008 38.122786 -1.849264 -3.581790 -6.586136 4.637208 -8.634133 -0.225407 -1.273770 0.137312 -2.094872 0.000000 0.000001 0.000003 -0.000011 -0.000000 -0.000008 0.000007 -0.000004 0.000013 -0.000011 -0.000001 0.000008 -0.000000 0.000001 -0.000001 -0.000011 0.000002 -0.000008 -0.000001 -0.000009 0.000010 0.000006 0.000001 0.000014 -0.000000 -0.000000 0.000000 0.000001 -0.000001 -0.000005 -0.000010 -0.000010 0.000007 0.000005 0.000002 0.000007 0.000000 0.000000 0.000001 -101.415359 19.701334 -16.240996 72.884170 24.084552 3.420848 21.917640 -3.521291 18.018965 -0.000011 0.000005 -0.000011 0.000001 -0.000003 -0.000000 -20.476533 -3.928919 19.264279 87.854422 -18.536056 -5.508773 17.788212 -3.779588 3.704850 -15.522211 0.000104 0.000003 0.000001 0.000000 -0.000001 
7.724488 3.737507 1.500511 -113.177286 71.938428 30.252977 15.275889 -9.048257 -5.928311 10.107542 -5.069763 -4.078112 0.000000 0.000000 0.000000 9.911568 -5.531530 -3.951645 -2.814101 7.259184 -14.677865 -28.098661 11.824072 -14.824898 -0.000000 -0.000000 -0.000000 4.162935 -4.692304 29.537078 0.000000 0.000000 0.000000 -97.926096 29.197098 -48.839626 0.000004 -28.731481 0.000002 1.123771 16.261951 9.017421 -1.540049 3.690166 6.142339 3.939041 7.948714 0.746806 -0.579464 1.574991 2.538711 0.000001 -0.000003 -0.000002 -0.000009 -0.000001 -0.000001 0.000001 0.000015 -0.000013 0.000001 -0.000007 -0.000014 -0.000000 -0.000002 -0.000001 -0.000008 -0.001920 0.015988 0.000000 0.001913 -0.016009 -0.000001 0.000003 -0.000013 -0.000000 0.000000 -0.000000 -0.000004 0.000003 -0.000003 -0.000005 0.000001 -0.000027 0.000005 0.000002 -0.000005 -0.000000 -0.000001 0.000000 5.128159 10.398800 -17.376821 0.000000 0.000000 0.000000 -40.082893 45.719032 98.404639 -0.000067 102.501687 0.000031 7.610479 -7.564149 37.288018 -1.849264 -3.581783 -6.586119 4.637196 -8.634128 -0.225418 -1.273759 0.137308 -2.094885 -0.000001 0.000000 0.000005 0.000001 0.000004 0.000003 -0.000016 -0.000009 0.000025 0.000013 0.000004 -0.000006 0.000001 0.000000 -0.000001 -0.000020 0.000004 0.000002 0.000003 -0.000003 0.000033 0.000001 -0.000001 -0.000012 -0.000000 -0.000002 -0.000001 -0.000010 0.000003 0.000008 -0.000000 -0.000003 0.000028 0.000000 -0.000001 -0.000024 -0.000000 0.000001 0.000004 -101.315017 19.685090 -16.162809 73.141654 23.564110 3.317580 21.135240 -3.626634 17.634085 -0.000003 0.000011 0.000006 0.000001 0.000000 -0.000000 -20.483690 -3.983009 19.268949 87.887336 -18.532639 -5.516560 17.799333 -3.752160 3.628409 -15.488998 0.000104 0.000022 0.000000 -0.000001 0.000002 
